<svg width="69" height="100" viewBox="0 0 69 100" fill="none" xmlns="http://www.w3.org/2000/svg">
<path d="M54.6919 0.427737C55.3036 0.782331 55.7769 1.33387 56.0346 1.99226C56.2922 2.65064 56.319 3.37695 56.1106 4.05253L44.8549 40.6255H65.6225C66.2328 40.6252 66.8298 40.8037 67.3399 41.1389C67.8499 41.474 68.2506 41.9512 68.4926 42.5115C68.7345 43.0719 68.8071 43.6907 68.7013 44.2918C68.5955 44.8929 68.3161 45.4498 67.8974 45.8939L17.9002 99.0159C17.4165 99.5303 16.7727 99.8657 16.0739 99.9674C15.3751 100.069 14.6625 99.9311 14.0521 99.576C13.4418 99.2208 12.9698 98.6693 12.713 98.0115C12.4562 97.3537 12.4298 96.6283 12.638 95.9536L23.8936 59.3744H3.12607C2.51576 59.3746 1.91874 59.1961 1.4087 58.861C0.898669 58.5258 0.49795 58.0486 0.256014 57.4883C0.0140778 56.928 -0.0584838 56.3091 0.0472858 55.708C0.153055 55.1069 0.432525 54.55 0.851198 54.1059L50.8484 0.983955C51.3315 0.470229 51.9743 0.135057 52.6721 0.0329374C53.3699 -0.0691821 54.0818 0.0677562 54.6919 0.421487V0.427737Z" fill="#F7B006"/>
</svg>
