<svg width="141" height="115" viewBox="0 0 141 115" fill="none" xmlns="http://www.w3.org/2000/svg">
<path d="M102 114.75H38.25V102H51V95.625H12.75C9.36849 95.625 6.12548 94.2817 3.73439 91.8906C1.3433 89.4995 0 86.2565 0 82.875V12.75C0 9.36849 1.3433 6.12548 3.73439 3.73439C6.12548 1.3433 9.36849 0 12.75 0H127.5C130.882 0 134.125 1.3433 136.516 3.73439C138.907 6.12548 140.25 9.36849 140.25 12.75V82.875C140.25 86.2565 138.907 89.4995 136.516 91.8906C134.125 94.2817 130.882 95.625 127.5 95.625H89.25V102H102V114.75ZM12.75 12.75V82.875H127.5V12.75H12.75Z" fill="#F7B006"/>
</svg>
