<svg width="84" height="84" viewBox="0 0 84 84" fill="none" xmlns="http://www.w3.org/2000/svg">
<path d="M3.335e-07 25.203C-0.000516525 21.8542 0.599741 18.5389 1.76569 15.4509C2.93164 12.3628 4.6399 9.56393 6.79062 7.21781C8.94134 4.8717 11.4914 3.02541 14.2917 1.78685C17.092 0.548288 20.0865 -0.057693 23.1 0.00432145C26.6656 -0.0167171 30.1946 0.804471 33.453 2.41346C36.7113 4.02245 39.6247 6.38249 42 9.33717C44.3753 6.38249 47.2887 4.02245 50.547 2.41346C53.8054 0.804471 57.3344 -0.0167171 60.9 0.00432145C63.9135 -0.057693 66.908 0.548288 69.7083 1.78685C72.5086 3.02541 75.0587 4.8717 77.2094 7.21781C79.3601 9.56393 81.0684 12.3628 82.2343 15.4509C83.4003 18.5389 84.0005 21.8542 84 25.203C84 50.1964 57.2082 69.0674 42 84C26.8254 68.9414 3.335e-07 50.2151 3.335e-07 25.203Z" fill="#F7B006"/>
</svg>
