<svg width="100" height="100" viewBox="0 0 100 100" fill="none" xmlns="http://www.w3.org/2000/svg">
<path d="M93.2889 7.47284C93.2532 7.3001 93.1691 7.1411 93.0462 7.0145C92.9234 6.88789 92.7671 6.79891 92.5955 6.75799C81.1561 3.96112 54.7244 13.9279 40.4041 28.2424C37.85 30.7759 35.5215 33.5272 33.4451 36.465C29.0291 36.0744 24.6131 36.4006 20.8494 38.0412C10.2303 42.715 7.13849 54.9103 6.27716 60.1564C6.22831 60.4436 6.24674 60.7381 6.331 61.0169C6.41526 61.2958 6.56306 61.5512 6.76278 61.7632C6.96249 61.9753 7.20867 62.138 7.48195 62.2388C7.75523 62.3396 8.04817 62.3756 8.33771 62.3439L25.3904 60.4631C25.4026 61.7487 25.4802 63.0329 25.6229 64.3107C25.7087 65.1981 26.1026 66.0273 26.7361 66.6545L33.3397 73.2424C33.9674 73.8751 34.7963 74.2689 35.6834 74.3557C36.9541 74.4978 38.2311 74.5754 39.5096 74.5881L37.6385 91.6193C37.6073 91.9088 37.6435 92.2015 37.7445 92.4746C37.8454 92.7477 38.0082 92.9937 38.2201 93.1933C38.432 93.3929 38.6873 93.5408 38.9659 93.6252C39.2445 93.7096 39.5389 93.7283 39.826 93.6799C45.0623 92.84 57.2791 89.7482 61.9256 79.1291C63.5662 75.3654 63.9022 70.9709 63.5233 66.5764C66.4682 64.4999 69.2267 62.1707 71.7674 59.6154C86.1326 45.3224 96.0428 19.4806 93.2889 7.47284ZM57.4354 42.5646C56.1236 41.2538 55.2301 39.5833 54.8679 37.7646C54.5057 35.9458 54.691 34.0605 55.4004 32.3471C56.1098 30.6337 57.3114 29.1691 58.8532 28.1387C60.3951 27.1083 62.2079 26.5583 64.0623 26.5583C65.9168 26.5583 67.7296 27.1083 69.2714 28.1387C70.8133 29.1691 72.0149 30.6337 72.7243 32.3471C73.4337 34.0605 73.619 35.9458 73.2567 37.7646C72.8945 39.5833 72.001 41.2538 70.6893 42.5646C69.8195 43.4357 68.7864 44.1267 67.6493 44.5982C66.5122 45.0697 65.2933 45.3124 64.0623 45.3124C62.8313 45.3124 61.6124 45.0697 60.4753 44.5982C59.3382 44.1267 58.3052 43.4357 57.4354 42.5646Z" fill="#F7B006"/>
<path d="M32.8906 78.0137C31.8203 79.0859 30.1035 79.5039 28.0371 79.8613C23.3945 80.6524 19.2949 76.6406 20.1289 71.9473C20.4473 70.168 21.3887 67.6738 21.9746 67.0879C22.1027 66.9623 22.1879 66.7995 22.2182 66.6227C22.2485 66.4459 22.2224 66.2641 22.1435 66.103C22.0645 65.9419 21.9369 65.8098 21.7786 65.7254C21.6203 65.641 21.4395 65.6086 21.2617 65.6328C18.6655 65.9505 16.2503 67.1275 14.4004 68.9766C9.80859 73.5723 9.375 90.625 9.375 90.625C9.375 90.625 26.4375 90.1914 31.0293 85.5957C32.8841 83.7473 34.0626 81.3284 34.375 78.7285C34.4473 77.9121 33.4531 77.4258 32.8906 78.0137Z" fill="#CA9C2E"/>
</svg>
