<svg width="153" height="102" viewBox="0 0 153 102" fill="none" xmlns="http://www.w3.org/2000/svg">
<path d="M152.24 89.9432L115.115 4.95834C113.795 1.93606 110.919 0 107.754 0H81.8358L82.4864 6.15078C82.6192 7.40431 81.6339 8.49849 80.3724 8.49849H72.6282C71.3667 8.49849 70.3814 7.40431 70.5142 6.15078L71.1648 0H45.2471C42.0788 0 39.2026 1.93606 37.8826 4.95834L0.757523 89.9432C-1.69907 95.5708 2.22086 101.982 8.12465 101.982H60.401L63.1391 76.0402C63.3675 73.8784 65.1894 72.2372 67.3644 72.2372H85.6362C87.8113 72.2372 89.6331 73.8784 89.8615 76.0402L92.5996 101.982H144.876C150.78 101.982 154.7 95.5708 152.24 89.9432ZM69.1704 18.8985C69.2255 18.3764 69.472 17.8931 69.8624 17.542C70.2527 17.1909 70.7593 16.9967 71.2844 16.997H81.7189C82.8051 16.997 83.7187 17.8176 83.8329 18.8985L85.0546 30.4724C85.2537 32.3553 83.7771 33.994 81.8862 33.994H71.1197C69.2261 33.994 67.7522 32.3553 67.9514 30.4724L69.1704 18.8985ZM83.8409 63.7387H69.1571C66.6341 63.7387 64.6662 61.553 64.9317 59.0433L66.2782 46.2955C66.5066 44.1337 68.3285 42.4924 70.5036 42.4924H82.4944C84.6695 42.4924 86.4913 44.1337 86.7197 46.2955L88.0662 59.0433C88.3318 61.553 86.3639 63.7387 83.8409 63.7387Z" fill="#F7B006"/>
</svg>
