<svg width="153" height="95" viewBox="0 0 153 95" fill="none" xmlns="http://www.w3.org/2000/svg">
<path d="M153 33.8991V46.8084L76.5 94.6209L0 46.8323V33.923L76.5 81.7355L153 33.8991ZM106.502 51.1116L117.762 44.0831C108.869 30.7434 93.6886 21.9459 76.4761 21.9459C59.2636 21.9459 44.0831 30.7195 35.2139 44.0353H35.2856C35.8833 43.4855 36.5048 42.9595 37.1264 42.4336C58.5703 24.6473 89.5767 28.5441 106.502 51.1116ZM53.8847 55.6059C57.9248 52.7611 62.6105 51.1355 67.6069 51.1355C75.8306 51.1355 83.1938 55.5342 88.2619 62.5148L99.1153 55.7255C94.1189 48.5775 85.8234 43.8919 76.4522 43.8919C67.1527 43.8919 58.905 48.5297 53.8847 55.6059ZM24.7669 24.6234C56.2753 -0.31078 100.837 6.35906 124.575 39.4692L124.743 39.7083L136.409 32.4408C123.619 12.9094 101.554 0 76.4761 0C51.7331 0 29.4764 12.7898 16.5909 32.4169C18.9577 29.9067 22.0177 26.7989 24.7669 24.6234Z" fill="#F7B006"/>
</svg>
