<svg width="153" height="109" viewBox="0 0 153 109" fill="none" xmlns="http://www.w3.org/2000/svg">
<path d="M137.459 68.1436C147.765 57.5187 152.892 46.8939 152.998 37.3049C153.21 19.9067 137.22 5.90849 108.002 1.44605C73.8162 -3.78669 31.3699 5.56318 0 23.3333C13.8123 16.2943 29.3777 10.5303 45.3416 7.87409C65.1304 2.42885 85.9816 1.1273 104.124 3.94289C144.631 10.2647 156.398 37.8096 130.367 65.4874C127.658 68.3561 124.523 71.092 121.07 73.6154L80.988 13.4787L30.4668 89.3136C13.042 81.5043 10.1467 65.3545 25.3934 49.1516C30.9183 43.2549 38.2229 38.0221 46.5103 33.719C51.8227 30.4785 57.0555 27.716 62.9788 25.5645C45.6869 30.9566 30.3871 39.6158 20.0544 50.2407C12.6967 57.8375 9.05769 65.4077 8.978 72.2607C8.84519 81.584 15.1935 89.5527 27.1465 94.3073L17.9826 108.04H44.9697L50.8134 98.9025C56.7102 99.1682 62.846 98.9025 69.035 98.1853L62.9788 108.04H98.9705L90.3113 93.9354C95.2518 92.5276 100.113 90.8808 104.788 88.9683L116.98 108.04H143.967L124.47 78.7153C129.384 75.5013 133.767 71.942 137.459 68.1436ZM87.6285 89.5261L80.988 78.7419L72.3021 92.8995C66.0866 93.8292 59.8976 94.2542 53.9211 94.0682L80.988 51.7547L101.892 84.4262C97.3237 86.3918 92.5159 88.1183 87.6285 89.5261Z" fill="#F7B006"/>
</svg>
